<svg width="83" height="61" viewBox="0 0 83 61" fill="none" xmlns="http://www.w3.org/2000/svg">
<path d="M61.56 -7.05686e-06C56.1529 0.104751 51.0027 2.32653 47.2161 6.18786C43.4296 10.0492 41.309 15.2419 41.31 20.65C41.3084 15.2427 39.187 10.0514 35.401 6.19066C31.615 2.32989 26.4663 0.107302 21.06 -7.05686e-06C9.48 -0.220007 -1.39212e-08 9.47999 -1.39212e-08 21.06V24.06C-0.00202735 29.5215 1.07867 34.9292 3.17961 39.9704C5.28055 45.0116 8.36004 49.5863 12.24 53.43C15.2484 56.41 18.6949 58.9123 22.46 60.85V35.64C22.435 34.7183 22.7696 33.8231 23.393 33.1437C24.0164 32.4644 24.8796 32.0542 25.8 32C26.2539 31.9853 26.7063 32.0604 27.1311 32.221C27.556 32.3816 27.9449 32.6245 28.2757 32.9357C28.6064 33.2469 28.8725 33.6204 29.0586 34.0347C29.2446 34.449 29.3471 34.896 29.36 35.35V43.15C29.36 43.4523 29.4801 43.7423 29.6939 43.9561C29.9077 44.1699 30.1977 44.29 30.5 44.29H30.55C30.8523 44.29 31.1423 44.1699 31.3561 43.9561C31.5699 43.7423 31.69 43.4523 31.69 43.15V29.15C31.6879 28.2486 32.0288 27.3802 32.6435 26.7209C33.2582 26.0617 34.1007 25.6609 35 25.6C35.4531 25.5853 35.9047 25.6601 36.3289 25.82C36.7531 25.98 37.1416 26.222 37.4722 26.5322C37.8029 26.8424 38.0691 27.2147 38.2557 27.6278C38.4424 28.041 38.5458 28.4869 38.56 28.94V43.19C38.56 43.4923 38.6801 43.7823 38.8939 43.9961C39.1077 44.2099 39.3977 44.33 39.7 44.33H39.79C39.9452 44.3381 40.1003 44.3147 40.2462 44.2612C40.3921 44.2076 40.5255 44.1251 40.6386 44.0186C40.7517 43.912 40.842 43.7837 40.9041 43.6413C40.9663 43.4989 40.9989 43.3454 41 43.19V25.49C40.9856 24.5735 41.3263 23.687 41.9507 23.016C42.5751 22.345 43.4349 21.9415 44.35 21.89C44.8031 21.8767 45.2544 21.9528 45.6781 22.1139C46.1018 22.2751 46.4895 22.5182 46.8192 22.8293C47.1489 23.1404 47.4141 23.5135 47.5995 23.9271C47.7849 24.3407 47.8871 24.7869 47.9 25.24V43.24C47.9124 43.5268 48.0326 43.7984 48.2365 44.0004C48.4404 44.2025 48.7131 44.3202 49 44.33C49.3023 44.33 49.5923 44.2099 49.8061 43.9961C50.0199 43.7823 50.14 43.4923 50.14 43.19V29.19C50.1259 28.2729 50.4682 27.3861 51.095 26.7164C51.7218 26.0468 52.584 25.6465 53.5 25.6C53.9581 25.5853 54.4144 25.6621 54.8425 25.8258C55.2706 25.9894 55.6617 26.2368 55.9931 26.5533C56.3246 26.8698 56.5896 27.2492 56.7728 27.6693C56.956 28.0894 57.0536 28.5417 57.06 29V53C57.06 53.1016 57.0922 53.2006 57.152 53.2828C57.2118 53.3649 57.2962 53.426 57.3929 53.4571C57.4897 53.4882 57.5938 53.4879 57.6903 53.456C57.7868 53.4242 57.8708 53.3626 57.93 53.28L59.93 50.28C60.4387 49.5181 61.2223 48.9824 62.1169 48.7848C63.0114 48.5873 63.9477 48.7432 64.73 49.22C65.4929 49.7242 66.0259 50.5092 66.2132 51.4043C66.4005 52.2994 66.2268 53.2322 65.73 54L65.67 54.09L61.51 60.09C64.7302 58.2803 67.6932 56.0471 70.32 53.45C74.211 49.613 77.3024 45.0424 79.4154 40.0028C81.5284 34.9632 82.621 29.5546 82.63 24.09V21.09C82.62 9.47999 73.14 -0.220007 61.56 -7.05686e-06Z" fill="url(#paint0_linear_1_3)"/>
<defs>
<linearGradient id="paint0_linear_1_3" x1="155.5" y1="60.85" x2="155.5" y2="-6.90235e-06" gradientUnits="userSpaceOnUse">
<stop offset="0.33" stop-color="#D4425B"/>
<stop offset="1" stop-color="#B83D74"/>
</linearGradient>
</defs>
</svg>

