<svg width="25" height="35" viewBox="0 0 25 35" fill="none" xmlns="http://www.w3.org/2000/svg">
<g clip-path="url(#clip0_103_527)">
<path d="M12.78 5.23686L14.2253 9.51924C14.2644 9.63854 14.3751 9.71389 14.5053 9.71389H19.1732C19.4597 9.71389 19.5769 10.0655 19.349 10.2288L15.573 12.8723C15.4688 12.9477 15.4232 13.0732 15.4688 13.1925L16.9141 17.4749C17.0053 17.7386 16.6928 17.9584 16.4584 17.7952L12.6824 15.1516C12.5782 15.0763 12.4415 15.0763 12.3373 15.1516L8.56126 17.7952C8.32688 17.9584 8.0209 17.7386 8.10553 17.4749L9.55084 13.1925C9.58991 13.0732 9.55084 12.9477 9.44668 12.8723L5.67064 10.2288C5.43626 10.0655 5.55996 9.71389 5.84642 9.71389H10.5144C10.6446 9.71389 10.7553 9.63226 10.7943 9.51924L12.2396 5.23686C12.3308 4.97313 12.7149 4.97313 12.7995 5.23686H12.78Z" fill="#A79197"/>
<path d="M25 12.056C25 5.40635 19.3945 0 12.5 0C5.60547 0 0 5.40635 0 12.056C0 16.6021 2.6237 20.5579 6.47786 22.6175L4.03646 35L12.5 30.1148L20.9635 35L18.5221 22.6175C22.3828 20.5642 25 16.6021 25 12.056ZM16.6862 23.4087L18.2292 31.2262L12.4935 27.9171L6.75781 31.2262L8.30078 23.4087C8.33984 23.4212 8.37891 23.4338 8.41797 23.4464C8.65885 23.528 8.89974 23.5971 9.14713 23.6661C9.28385 23.7038 9.42057 23.7352 9.5638 23.7666C9.78516 23.8168 10 23.8671 10.2279 23.9047C10.4036 23.9361 10.5859 23.9612 10.7617 23.9864C10.957 24.0115 11.1523 24.0429 11.3542 24.0617C11.6276 24.0868 11.8945 24.0931 12.168 24.0994C12.2786 24.0994 12.3828 24.1182 12.4935 24.1182C12.6042 24.1182 12.7083 24.1057 12.819 24.0994C13.0924 24.0931 13.3594 24.0806 13.6328 24.0617C13.8346 24.0429 14.0299 24.0115 14.2253 23.9864C14.401 23.9612 14.5833 23.9361 14.7591 23.9047C14.9805 23.8671 15.2018 23.8168 15.4232 23.7666C15.5599 23.7352 15.7031 23.7038 15.8398 23.6661C16.0872 23.5971 16.3281 23.528 16.569 23.4464C16.6081 23.4338 16.6471 23.4212 16.6862 23.4087ZM16.9727 21.2549C16.6341 21.4119 16.2826 21.5438 15.931 21.6631C15.918 21.6631 15.9115 21.6694 15.8984 21.6756C13.6849 22.4103 11.3021 22.4103 9.08854 21.6756L9.05599 21.6631C8.70443 21.5438 8.35938 21.4056 8.01432 21.2549C4.43359 19.6286 1.9401 16.1186 1.9401 12.056C1.95312 6.44869 6.6862 1.88375 12.5 1.88375C18.3138 1.88375 23.0469 6.44869 23.0469 12.056C23.0469 16.1249 20.5534 19.6286 16.9727 21.2549Z" fill="#A79197"/>
</g>
<defs>
<clipPath id="clip0_103_527">
<rect width="25" height="35" fill="white"/>
</clipPath>
</defs>
</svg>
